<svg width="30" height="30" viewBox="0 0 30 30" fill="none" xmlns="http://www.w3.org/2000/svg">
<path d="M29.0304 10.5643L20.037 9.19564L16.0167 0.660742C15.9069 0.427062 15.7262 0.237892 15.5031 0.122906C14.9434 -0.166413 14.2633 0.0746863 13.9835 0.660742L9.96319 9.19564L0.969774 10.5643C0.721827 10.6014 0.495132 10.7238 0.321568 10.9093C0.11174 11.1351 -0.00388537 11.439 9.96959e-05 11.754C0.00408476 12.0691 0.127354 12.3696 0.342821 12.5896L6.84968 19.2328L5.3124 28.6134C5.27635 28.8316 5.29941 29.056 5.37896 29.2612C5.45852 29.4664 5.59138 29.6441 5.76249 29.7743C5.9336 29.9044 6.13611 29.9817 6.34705 29.9975C6.55799 30.0132 6.76893 29.9668 6.95594 29.8634L15.0001 25.4346L23.0442 29.8634C23.2638 29.9858 23.5188 30.0266 23.7633 29.9821C24.3796 29.8708 24.794 29.2588 24.6877 28.6134L23.1505 19.2328L29.6573 12.5896C29.8344 12.4078 29.9513 12.1704 29.9867 11.9108C30.0824 11.2617 29.6502 10.6608 29.0304 10.5643Z" fill="#FFC107"/>
</svg>
